<?xml version="1.0" standalone="no"?>
<!DOCTYPE svg PUBLIC "-//W3C//DTD SVG 20010904//EN"
 "http://www.w3.org/TR/2001/REC-SVG-20010904/DTD/svg10.dtd">
<svg version="1.0" xmlns="http://www.w3.org/2000/svg"
 width="1920.000000pt" height="1920.000000pt" viewBox="0 0 1920.000000 1920.000000"
 preserveAspectRatio="xMidYMid meet">
<metadata>
Created by potrace 1.11, written by Peter Selinger 2001-2013
</metadata>
<g transform="translate(0.000000,1920.000000) scale(0.100000,-0.100000)"
fill="#000000" stroke="none">
<path d="M9238 19195 c-1 -1 -68 -6 -148 -9 -80 -4 -161 -8 -180 -11 -19 -2
-79 -7 -133 -10 -54 -4 -106 -8 -115 -10 -9 -1 -53 -6 -96 -10 -43 -4 -88 -8
-98 -10 -11 -2 -49 -7 -86 -10 -37 -3 -74 -8 -82 -10 -8 -2 -64 -11 -125 -20
-143 -21 -160 -24 -220 -35 -27 -5 -64 -11 -80 -13 -17 -3 -55 -10 -85 -16
-30 -6 -89 -18 -130 -26 -41 -8 -145 -31 -230 -50 -85 -20 -166 -38 -180 -41
-14 -3 -38 -9 -55 -14 -16 -5 -113 -33 -214 -61 -186 -51 -413 -122 -573 -178
-135 -47 -301 -110 -320 -121 -10 -6 -23 -10 -28 -10 -6 0 -30 -9 -53 -19 -23
-10 -80 -35 -127 -54 -306 -126 -698 -318 -1008 -493 -532 -301 -996 -626
-1501 -1049 -43 -36 -285 -251 -336 -300 -198 -185 -516 -514 -654 -674 -25
-30 -56 -65 -68 -78 -11 -13 -36 -42 -55 -65 -18 -23 -37 -46 -43 -52 -5 -6
-30 -36 -55 -66 -25 -30 -51 -62 -57 -70 -107 -129 -436 -581 -518 -711 -16
-26 -72 -114 -123 -195 -302 -474 -611 -1094 -827 -1654 -63 -163 -228 -648
-239 -701 -3 -13 -21 -80 -42 -149 -20 -68 -37 -131 -39 -140 -2 -8 -15 -60
-29 -115 -37 -148 -84 -362 -111 -510 -13 -71 -27 -143 -30 -160 -3 -16 -8
-46 -10 -65 -3 -19 -8 -46 -11 -60 -3 -14 -8 -38 -10 -55 -2 -16 -8 -59 -14
-95 -5 -36 -12 -83 -14 -105 -3 -22 -7 -56 -10 -75 -8 -55 -15 -121 -21 -180
-3 -30 -8 -73 -10 -95 -2 -22 -7 -78 -10 -125 -4 -47 -8 -101 -10 -120 -27
-278 -27 -1049 0 -1390 2 -30 7 -90 10 -133 3 -43 7 -92 10 -110 4 -31 7 -59
21 -212 3 -38 8 -73 10 -76 1 -3 6 -32 9 -65 4 -32 13 -102 21 -154 9 -52 17
-106 19 -120 8 -57 18 -110 37 -205 11 -55 22 -113 24 -130 15 -97 143 -629
175 -730 5 -16 25 -84 45 -150 40 -137 153 -479 190 -572 13 -35 35 -93 50
-130 14 -38 29 -77 34 -88 5 -11 20 -47 33 -80 242 -594 565 -1197 938 -1752
188 -280 576 -779 759 -975 14 -15 61 -67 105 -116 88 -98 456 -467 576 -577
289 -267 622 -537 934 -758 124 -89 481 -327 488 -327 3 0 32 -17 64 -38 32
-22 63 -41 68 -43 23 -9 160 -94 163 -101 2 -5 9 -8 15 -8 7 0 68 -32 137 -71
182 -102 547 -283 761 -377 103 -45 190 -82 193 -82 3 0 25 -9 49 -19 44 -20
99 -42 278 -110 124 -46 478 -165 629 -209 95 -28 145 -42 320 -89 66 -17 373
-89 415 -97 17 -3 53 -10 80 -16 78 -16 216 -41 309 -56 21 -3 48 -7 60 -10
11 -2 32 -6 46 -8 14 -3 45 -8 70 -11 25 -3 54 -7 65 -9 12 -2 48 -7 80 -11
33 -4 71 -9 85 -11 14 -2 72 -9 130 -15 58 -5 121 -12 140 -14 260 -28 533
-40 930 -40 387 0 541 6 825 31 109 9 121 10 190 18 214 22 338 37 345 41 3 2
30 6 60 10 30 4 107 15 170 26 63 11 131 22 150 25 27 4 333 67 430 89 556
122 1269 365 1844 627 84 39 555 275 606 305 19 11 62 35 95 53 33 19 116 67
185 108 69 41 134 80 145 86 75 43 459 299 575 384 195 144 446 337 470 362 3
3 59 50 124 105 66 55 132 111 146 125 15 14 67 61 116 105 99 88 507 493 599
596 73 79 167 186 225 254 23 28 52 61 64 75 11 14 39 48 61 75 22 28 42 52
45 55 25 25 207 262 340 445 160 217 436 653 562 885 20 36 49 88 65 115 52
88 267 525 333 675 34 80 71 163 80 185 10 22 32 76 49 120 18 44 36 89 41
100 4 11 25 65 45 120 21 55 41 109 46 120 18 40 138 414 182 565 80 274 137
504 192 770 19 93 73 391 80 445 3 22 8 49 10 60 2 11 7 47 11 80 3 33 7 62 9
65 2 3 6 39 10 80 4 41 9 83 11 93 2 10 6 48 9 85 3 37 8 78 10 92 2 14 7 70
11 125 3 55 8 108 9 117 11 56 19 376 19 708 0 349 -3 472 -19 685 -15 198
-15 200 -40 433 -3 26 -8 67 -12 92 -3 25 -7 54 -8 65 -6 48 -16 125 -26 185
-6 36 -12 76 -14 90 -6 46 -27 156 -71 385 -30 154 -135 590 -164 680 -6 17
-23 75 -39 130 -44 151 -110 356 -127 392 -8 17 -14 35 -14 40 0 8 -120 335
-139 378 -4 11 -18 43 -29 70 -57 136 -126 297 -155 360 -45 100 -275 560
-312 625 -199 347 -308 527 -382 632 -18 26 -33 50 -33 52 0 7 -182 268 -197
284 -7 8 -18 23 -25 35 -13 25 -204 279 -276 366 -26 32 -63 78 -82 102 -204
256 -614 693 -860 919 -19 18 -62 58 -95 89 -34 31 -89 81 -124 111 -35 30
-69 60 -75 65 -20 20 -300 250 -351 289 -184 142 -572 421 -657 471 -9 6 -82
52 -162 103 -81 50 -148 92 -151 92 -2 0 -23 13 -47 29 -24 15 -104 62 -178
103 -74 42 -153 86 -175 98 -55 31 -371 189 -475 238 -701 328 -1513 592
-2235 727 -169 31 -212 39 -282 49 -16 2 -57 9 -93 14 -36 6 -83 13 -105 17
-22 3 -51 7 -65 10 -14 2 -56 6 -95 10 -38 4 -72 8 -75 10 -3 1 -41 6 -85 10
-44 4 -100 9 -125 11 -87 9 -136 13 -243 19 -59 4 -120 9 -135 11 -32 5 -899
14 -904 9z"/>
</g>
</svg>
